# xmcd
#
# Track frame offsets:
#   150
#   19288
#   38318
#   53056
#   70817
#   86230
#   105773
#   121375
#   138164
#   154305
#   167450
#   180487
#   194793
#   210745
#   223701
#   236603
#   256523
#   273690
#   287861
#   303759
#
# Disc length: 4242 seconds
#
# Revision: 0
# Processed by: cddbd v1.5PL3 Copyright (c) Steve Scherf et al.
# Submitted via: uFREEDB ActiveX Control 1.5
#
DISCID=17109014
DTITLE=Benito de Paula - Seleção de Ouro
DYEAR=1900
DGENRE=Holiday
TTITLE0=Charlie Brown
TTITLE1=Vai Ficar na Saudade
TTITLE2=Sanfona Branca
TTITLE3=Retalhos de Cetim
TTITLE4=Tudo Está no Seu Lugar
TTITLE5=Não Precisa Me Perdoar
TTITLE6=Modificação
TTITLE7=Amigo do Sol, Amigo da Lua
TTITLE8=Assobiar e Chupar Cana
TTITLE9=Pagode da Pesada
TTITLE10=Do Jeito Que a Vida Quer
TTITLE11=Mulher Brasileira
TTITLE12=Alem de Tudo
TTITLE13=Ah! Como eu Amei
TTITLE14=Como Dizia o Mestre
TTITLE15=Fazendo Paixão
TTITLE16=Lua, Lua
TTITLE17=Viva o Sol
TTITLE18=Pau de Arara
TTITLE19=Olha nós Ai
EXTD=
EXTT0=
EXTT1=
EXTT2=
EXTT3=
EXTT4=
EXTT5=
EXTT6=
EXTT7=
EXTT8=
EXTT9=
EXTT10=
EXTT11=
EXTT12=
EXTT13=
EXTT14=
EXTT15=
EXTT16=
EXTT17=
EXTT18=
EXTT19=
PLAYORDER=
